<?xml version="1.0" encoding="UTF-8"?>
<svg version="1.1" xmlns="http://www.w3.org/2000/svg" width="205" height="200">
<path d="M0 0 C67.65 0 135.3 0 205 0 C205 66 205 132 205 200 C137.35 200 69.7 200 0 200 C0 134 0 68 0 0 Z " fill="#FCFCFC" transform="translate(0,0)"/>
<path d="M0 0 C32.01 0 64.02 0 97 0 C97 66 97 132 97 200 C65.65 200 34.3 200 2 200 C2 199.67 2 199.34 2 199 C2.53625 198.98582031 3.0725 198.97164062 3.625 198.95703125 C27.47862154 197.50541283 50.99185699 183.7947558 67.125 166.8125 C86.45087308 144.76079062 93.62330011 118.98832721 92 90 C90.28342939 66.0620701 78.63305028 43.45419846 61.3046875 26.9609375 C49.03881242 16.52454888 35.39066583 8.87576293 20 4 C19.32839844 3.78601563 18.65679687 3.57203125 17.96484375 3.3515625 C12.09353137 1.68782306 6.06747732 1.38427356 0 1 C0 0.67 0 0.34 0 0 Z " fill="#FCFCFC" transform="translate(108,0)"/>
<path d="M0 0 C29.04 0 58.08 0 88 0 C88 0.33 88 0.66 88 1 C86.36804688 1.34611328 86.36804688 1.34611328 84.703125 1.69921875 C75.6974433 3.67226398 67.37504706 6.0495061 59 10 C58.16339844 10.36738281 57.32679687 10.73476562 56.46484375 11.11328125 C49.25177525 14.43975183 43.16837136 19.03581269 37 24 C36.14277344 24.67804687 35.28554688 25.35609375 34.40234375 26.0546875 C16.79764258 40.84152049 4.77403434 64.22517807 2 87 C0.19983929 118.2070039 7.91936484 145.11175655 28.91015625 168.78515625 C36.85001157 177.32133609 46.52090639 183.97683566 57 189 C58.37285156 189.67482422 58.37285156 189.67482422 59.7734375 190.36328125 C71.02097593 195.70349907 81.730009 197.70601832 94 199 C94 199.33 94 199.66 94 200 C62.98 200 31.96 200 0 200 C0 134 0 68 0 0 Z " fill="#FCFCFC" transform="translate(0,0)"/>
<path d="M0 0 C1.15886719 0.04382813 2.31773438 0.08765625 3.51171875 0.1328125 C26.55558973 1.51845703 46.31028153 12.78358081 63 28 C64.01513672 28.89138672 64.01513672 28.89138672 65.05078125 29.80078125 C82.65759284 46.11237911 92.22971991 71.6701783 93.2578125 95.11328125 C94.08549971 123.88307552 85.00397954 148.47926418 65.36791992 169.6796875 C53.9241075 181.52832849 40.21356399 188.9843214 25 195 C23.70255859 195.53173828 23.70255859 195.53173828 22.37890625 196.07421875 C0.27855652 204.67484746 -27.49240569 200.55709937 -48.62890625 191.43359375 C-56.86213278 187.53840096 -63.9734533 182.77390328 -71 177 C-72.29550781 175.95199219 -72.29550781 175.95199219 -73.6171875 174.8828125 C-85.02826589 165.17806359 -92.5463586 153.34252839 -99 140 C-99.40992187 139.17371094 -99.81984375 138.34742188 -100.2421875 137.49609375 C-109.48870743 116.88853965 -110.01754694 91.26236063 -103 70 C-102.79101074 69.35772461 -102.58202148 68.71544922 -102.36669922 68.05371094 C-94.00267414 43.20597802 -75.23354276 21.88590062 -51.93896484 9.94335938 C-34.95592472 1.87173871 -18.69303835 -0.83632198 0 0 Z M-78.47265625 38.65625 C-94.62878427 57.50044735 -102.6125812 80.93468553 -101.18017578 105.68603516 C-99.4765202 127.56577444 -90.70761817 147.64964612 -76 164 C-75.37480469 164.70769531 -74.74960938 165.41539062 -74.10546875 166.14453125 C-59.41218744 181.82767572 -36.35312509 193.15548392 -14.86279297 194.09326172 C-1.88894872 194.42592439 9.44080656 193.56588433 21.8125 189.375 C22.87549316 189.01599609 23.93848633 188.65699219 25.03369141 188.28710938 C49.0377401 179.93082657 67.04201347 162.67562059 78.21777344 140.03808594 C84.26147618 127.39582916 87.39528877 114.82509024 87.3125 100.8125 C87.30404053 99.30139648 87.30404053 99.30139648 87.29541016 97.75976562 C86.86465239 71.09543353 74.84606212 47.98138669 55.88671875 29.515625 C43.84190297 19.01919555 29.54746359 11.73832325 14 8 C12.72382813 7.69255859 12.72382813 7.69255859 11.421875 7.37890625 C-22.97689128 0.41267565 -55.04367403 13.4876751 -78.47265625 38.65625 Z " fill="#0C0C0C" transform="translate(108,0)"/>
<path d="M0 0 C3.00098227 2.66150464 5.05912144 5.89975578 6.7265625 9.53125 C6.7265625 10.19125 6.7265625 10.85125 6.7265625 11.53125 C3.82107368 13.57294485 2.32514204 14.53125 -1.2734375 14.53125 C-2.83146067 12.64640013 -4.07434204 10.63844371 -5.3828125 8.57421875 C-8.95417596 4.71508014 -13.29928632 3.44497052 -18.39453125 3.0625 C-19.83296366 3.02826337 -21.2721553 3.01837643 -22.7109375 3.03125 C-23.46157471 3.03769531 -24.21221191 3.04414062 -24.9855957 3.05078125 C-30.8707393 3.24569177 -35.04917752 4.19168764 -39.2734375 8.53125 C-48.16955778 18.13022403 -47.88803511 28.39490543 -47.6484375 40.8828125 C-47.25820597 49.33689993 -45.1553969 56.24909721 -38.7734375 62.15625 C-31.99392486 67.43275748 -24.53182043 67.27285645 -16.2734375 66.53125 C-10.4937451 65.02527381 -6.47212684 62.69836355 -3.2734375 57.53125 C-2.22892312 55.55413349 -1.21645612 53.55874004 -0.2734375 51.53125 C4.4765625 52.40625 4.4765625 52.40625 6.7265625 53.53125 C6.45610501 60.02222982 4.1473618 63.82364269 -0.2734375 68.53125 C-9.41872487 76.49066494 -19.09794646 76.47450104 -30.75537109 75.8125 C-38.35988983 74.96312967 -44.12362685 71.1077232 -49.2734375 65.65625 C-57.92043689 54.53268282 -60.40498271 41.42411063 -59.2734375 27.53125 C-57.63978259 16.36794141 -53.18947177 7.17233914 -44.359375 0 C-31.20055175 -9.26538866 -13.39891883 -9.04289172 0 0 Z " fill="#0A0A0A" transform="translate(91.2734375,64.46875)"/>
<path d="M0 0 C3.3 0 6.6 0 10 0 C10.65104167 2.27864583 11.30208333 4.55729167 11.953125 6.8359375 C12.83733363 9.50835909 13.82389466 12.06210538 14.890625 14.6640625 C17.42742789 20.92438794 19.37613239 27.3358837 21.35546875 33.7890625 C23.03560662 39.18679051 24.91819441 44.42178648 27.06298828 49.65185547 C28.42818876 53.0730379 29.56647151 56.5552308 30.6875 60.0625 C31.77316607 64.36348007 31.77316607 64.36348007 34 68 C34.28721924 67.13310547 34.57443848 66.26621094 34.87036133 65.37304688 C35.9482222 62.1223071 37.02748485 58.87203948 38.10766602 55.62207031 C38.57273711 54.2218632 39.03726699 52.82147619 39.5012207 51.42089844 C43.92408211 38.0713792 43.92408211 38.0713792 46.19311523 32.17333984 C47.3324215 29.10462444 48.38698338 26.00747191 49.4453125 22.91015625 C49.66259506 22.27496063 49.87987762 21.63976501 50.10374451 20.98532104 C51.01017307 18.33294816 51.91516098 15.68009608 52.81689453 13.02612305 C53.48212493 11.06991069 54.15094622 9.11495658 54.8203125 7.16015625 C55.21492676 6.00136963 55.60954102 4.84258301 56.01611328 3.64868164 C57 1 57 1 58 0 C59.51928038 -0.07179964 61.04167482 -0.08392007 62.5625 -0.0625 C63.38878906 -0.05347656 64.21507812 -0.04445312 65.06640625 -0.03515625 C65.70449219 -0.02355469 66.34257812 -0.01195312 67 0 C66.0087533 6.13007829 64.49172453 11.5880425 62.0703125 17.30078125 C60.87016752 20.32742424 59.92910959 23.37980125 59 26.5 C57.57402094 31.26811749 55.90811098 35.81485797 54 40.40625 C52.84574078 43.40010985 51.91930885 46.42606102 51 49.5 C49.58424548 54.22101801 47.96950756 58.75128655 46.08203125 63.30078125 C43.87783601 68.79933327 41.9645596 74.41227719 40 80 C35.71 80 31.42 80 27 80 C26.60167969 78.865625 26.20335937 77.73125 25.79296875 76.5625 C25.25785541 75.04165157 24.72269673 73.52081909 24.1875 72 C23.79594727 70.88431641 23.79594727 70.88431641 23.39648438 69.74609375 C22.12982849 66.14941654 20.84347238 62.56433832 19.48828125 59 C17.58376209 53.95623901 15.92832242 48.83331737 14.25 43.7109375 C13.06332174 40.11381901 11.84621764 36.54083285 10.5 33 C8.58334083 27.95878707 6.92889661 22.83506986 5.25 17.7109375 C4.01856219 13.97814163 2.73894743 10.28822415 1.3125 6.625 C0 3 0 3 0 0 Z " fill="#090909" transform="translate(107,59)"/>
</svg>
